<?xml version="1.0" encoding="UTF-8"?>
<svg xmlns="http://www.w3.org/2000/svg" xmlns:xlink="http://www.w3.org/1999/xlink" width="478.36pt" height="173pt" viewBox="0 0 478.36 173" version="1.1">
<defs>
<clipPath id="clip1">
  <path d="M 427 0 L 478.359375 0 L 478.359375 82 L 427 82 Z M 427 0 "/>
</clipPath>
</defs>
<g id="surface1">
<path style=" stroke:none;fill-rule:nonzero;fill:rgb(12.89978%,66.299438%,88.198853%);fill-opacity:1;" d="M 29.414063 72.191406 C 32.453125 74.851563 38.152344 75.484375 41.574219 75.484375 C 46.765625 75.484375 52.335938 73.839844 56.894531 68.519531 C 62.089844 62.3125 65.128906 54.460938 65.128906 40.910156 C 65.128906 28.625 60.824219 16.847656 51.832031 10.640625 C 46.890625 7.222656 40.558594 5.953125 33.339844 5.953125 C 31.058594 5.953125 28.90625 6.207031 28.148438 6.589844 C 27.640625 6.96875 27.132813 7.726563 27.132813 8.613281 C 26.882813 13.425781 26.882813 29.003906 26.882813 40.402344 C 26.882813 52.308594 27.007813 64.214844 27.261719 68.011719 C 27.386719 69.023438 28.019531 71.179688 29.414063 72.191406 M 1.425781 1.902344 C 4.210938 2.027344 14.976563 2.28125 18.648438 2.28125 C 27.386719 2.28125 32.328125 1.902344 42.585938 1.902344 C 53.601563 1.902344 62.34375 4.433594 69.054688 10.007813 C 77.414063 16.972656 81.464844 27.613281 81.464844 38.882813 C 81.464844 53.320313 75.640625 63.453125 68.039063 69.660156 C 59.050781 77.257813 48.285156 79.917969 34.859375 79.917969 C 27.007813 79.917969 17.636719 79.539063 5.730469 79.410156 L 0.285156 79.410156 C -0.09375 78.90625 -0.09375 76.371094 0.285156 76.117188 C 3.449219 75.863281 5.855469 75.609375 7.882813 74.976563 C 10.164063 74.34375 11.304688 72.824219 11.683594 69.152344 C 12.0625 63.707031 12.0625 53.320313 12.0625 37.996094 C 12.0625 26.726563 12.0625 17.351563 11.683594 12.035156 C 11.429688 8.488281 10.796875 7.347656 8.136719 6.460938 C 6.363281 5.828125 3.449219 5.320313 1.171875 5.066406 C 0.917969 4.5625 1.171875 2.28125 1.425781 1.902344 "/>
<path style=" stroke:none;fill-rule:nonzero;fill:rgb(12.89978%,66.299438%,88.198853%);fill-opacity:1;" d="M 117.050781 6.714844 C 116.671875 6.96875 116.289063 8.109375 116.289063 8.613281 C 116.039063 11.402344 116.039063 21.914063 116.039063 39.136719 C 116.039063 39.515625 116.417969 40.023438 116.671875 40.023438 C 122.75 40.277344 128.703125 40.023438 131.234375 38.757813 C 134.65625 37.109375 137.820313 33.4375 137.820313 24.824219 C 137.820313 13.933594 131.867188 6.207031 120.597656 6.207031 C 119.710938 6.207031 118.316406 6.335938 117.050781 6.714844 M 91.46875 1.902344 C 94.507813 1.902344 103.117188 2.28125 107.425781 2.28125 C 115.53125 2.28125 121.988281 2.027344 129.96875 2.027344 C 144.914063 2.027344 152.765625 9.753906 152.765625 21.152344 C 152.765625 31.15625 146.054688 37.363281 138.074219 40.53125 C 137.820313 40.65625 137.820313 41.164063 137.945313 41.417969 C 140.859375 46.734375 152.132813 64.085938 158.59375 70.417969 C 163.402344 75.105469 164.542969 75.484375 170.875 76.246094 C 171.003906 76.625 170.621094 79.15625 170.242188 79.410156 C 163.402344 80.042969 152.132813 79.664063 147.191406 77.382813 C 144.660156 76.246094 142.382813 74.089844 141.113281 72.445313 C 136.300781 66.617188 129.082031 53.828125 124.777344 47.117188 C 123.890625 45.597656 122.878906 44.710938 121.230469 44.710938 C 120.21875 44.582031 117.429688 44.710938 116.542969 44.710938 C 116.289063 44.710938 116.039063 45.214844 116.039063 45.46875 C 116.039063 53.066406 116.039063 63.199219 116.289063 68.773438 C 116.417969 73.207031 117.175781 74.34375 119.964844 75.105469 C 121.988281 75.484375 123.382813 75.738281 126.421875 76.117188 C 127.054688 76.496094 126.804688 79.03125 126.296875 79.410156 C 123.511719 79.410156 117.558594 79.03125 108.820313 79.03125 C 98.8125 79.03125 93.875 79.410156 91.59375 79.410156 C 91.214844 79.03125 91.089844 76.625 91.59375 76.246094 C 94 75.863281 95.773438 75.738281 97.167969 75.359375 C 99.953125 74.726563 100.839844 73.078125 101.09375 68.644531 C 101.21875 64.972656 101.347656 46.609375 101.347656 39.136719 C 101.347656 27.484375 101.347656 17.605469 101.21875 12.035156 C 100.96875 8.488281 99.953125 6.714844 97.417969 6.082031 C 95.773438 5.703125 93.492188 5.320313 91.339844 5.070313 C 90.835938 4.5625 91.089844 2.15625 91.46875 1.902344 "/>
<path style=" stroke:none;fill-rule:nonzero;fill:rgb(12.89978%,66.299438%,88.198853%);fill-opacity:1;" d="M 170.234375 1.902344 C 174.164063 1.902344 181.253906 2.28125 187.714844 2.28125 L 212.285156 2.28125 C 217.097656 2.28125 223.679688 2.28125 227.355469 1.648438 C 227.480469 1.777344 227.734375 2.027344 227.734375 2.15625 C 226.722656 5.953125 225.960938 14.1875 225.582031 20.265625 C 225.074219 20.773438 222.671875 20.773438 222.164063 20.519531 C 221.65625 16.085938 220.894531 13.300781 220.007813 11.402344 C 218.871094 8.867188 217.222656 7.855469 214.5625 7.601563 C 211.648438 7.347656 198.480469 7.222656 196.453125 7.476563 C 195.820313 7.601563 195.1875 9.121094 195.1875 9.628906 C 195.058594 17.226563 195.058594 29.257813 195.1875 36.351563 C 195.1875 36.855469 195.566406 37.238281 195.820313 37.238281 C 199.492188 37.363281 209.625 37.363281 213.675781 37.109375 C 216.589844 36.984375 217.601563 35.464844 218.488281 32.425781 C 218.996094 31.15625 219.25 29.765625 219.503906 28.117188 C 220.136719 27.738281 222.796875 27.863281 223.175781 28.246094 C 222.921875 31.15625 222.414063 35.84375 222.414063 40.152344 C 222.414063 43.949219 222.671875 48.636719 222.796875 52.054688 C 222.289063 52.433594 219.628906 52.5625 219.121094 52.183594 C 218.488281 48.761719 218.488281 48.761719 218.109375 47.242188 C 217.476563 45.46875 216.464844 43.570313 213.421875 43.316406 C 210.761719 42.9375 199.746094 42.9375 195.945313 43.0625 C 195.4375 43.0625 195.1875 43.824219 195.1875 44.074219 C 195.058594 50.660156 195.1875 62.1875 195.1875 69.027344 C 195.1875 71.304688 196.453125 72.953125 197.972656 73.332031 C 200.503906 73.839844 207.089844 74.089844 213.550781 74.089844 C 220.261719 74.089844 221.78125 73.207031 224.0625 70.546875 C 226.46875 68.011719 229.003906 63.199219 230.902344 58.640625 C 231.535156 58.515625 233.8125 59.273438 234.195313 59.90625 C 233.6875 62.820313 230.902344 73.839844 228.875 77.636719 C 228.242188 79.03125 227.609375 79.539063 221.78125 79.539063 C 211.398438 79.539063 201.011719 79.03125 187.96875 79.03125 C 180.746094 79.03125 173.402344 79.410156 167.195313 79.410156 C 166.941406 78.777344 166.816406 76.625 167.195313 76.117188 C 171.121094 75.738281 174.164063 75.359375 176.0625 74.851563 C 178.722656 74.089844 179.734375 72.570313 179.988281 68.140625 C 180.242188 62.695313 180.242188 50.660156 180.242188 36.730469 C 180.242188 26.347656 180.242188 15.707031 179.988281 12.035156 C 179.734375 8.109375 179.101563 6.96875 176.316406 6.210938 C 174.542969 5.703125 172.390625 5.320313 170.109375 5.070313 C 169.730469 4.5625 169.984375 2.28125 170.234375 1.902344 "/>
<path style=" stroke:none;fill-rule:nonzero;fill:rgb(12.89978%,66.299438%,88.198853%);fill-opacity:1;" d="M 273.832031 17.988281 C 271.425781 24.953125 267.246094 37.742188 265.347656 43.570313 C 265.21875 44.074219 265.347656 44.328125 265.597656 44.328125 C 266.863281 44.457031 269.652344 44.457031 273.832031 44.457031 C 277.503906 44.457031 281.304688 44.582031 282.441406 44.457031 C 282.695313 44.457031 282.949219 43.949219 282.824219 43.695313 C 280.921875 37.363281 276.742188 24.445313 274.464844 17.988281 C 274.339844 17.988281 273.957031 17.859375 273.832031 17.988281 M 250.90625 65.859375 C 257.621094 49.773438 269.144531 18.113281 272.183594 9.246094 C 272.945313 6.96875 273.832031 3.929688 274.085938 2.15625 C 275.476563 2.15625 277.378906 2.28125 279.402344 2.28125 C 281.9375 2.28125 283.457031 2.15625 284.722656 2.15625 C 285.101563 3.800781 285.863281 6.460938 286.496094 8.613281 C 290.167969 19 301.945313 53.703125 306 64.464844 C 309.800781 74.089844 310.558594 74.851563 319.425781 76.117188 C 319.679688 76.496094 319.425781 79.03125 319.042969 79.410156 C 315.878906 79.410156 309.925781 79.03125 302.328125 79.03125 C 293.207031 79.03125 288.648438 79.285156 284.597656 79.410156 C 284.34375 78.90625 284.214844 76.625 284.597656 76.117188 C 287.128906 75.738281 289.535156 75.230469 290.800781 74.722656 C 292.449219 73.964844 292.449219 72.570313 292.195313 71.8125 C 290.800781 66.746094 287.128906 56.613281 285.230469 51.296875 C 284.976563 51.039063 284.46875 50.410156 284.089844 50.410156 C 282.441406 50.28125 278.515625 50.28125 274.210938 50.28125 C 268.257813 50.28125 265.347656 50.28125 263.824219 50.410156 C 263.320313 50.410156 262.683594 51.039063 262.558594 51.546875 C 260.277344 57.878906 256.351563 68.011719 256.351563 70.671875 C 256.351563 72.445313 256.480469 74.21875 260.027344 75.105469 C 261.800781 75.484375 263.570313 75.863281 265.976563 76.117188 C 266.230469 76.625 265.976563 79.03125 265.597656 79.410156 C 262.054688 79.410156 256.859375 79.03125 250.273438 79.03125 C 244.953125 79.03125 240.777344 79.410156 237.101563 79.410156 C 236.722656 79.03125 236.722656 76.625 237.101563 76.117188 C 245.84375 74.976563 247.488281 74.089844 250.90625 65.859375 "/>
<path style=" stroke:none;fill-rule:nonzero;fill:rgb(12.89978%,66.299438%,88.198853%);fill-opacity:1;" d="M 322.585938 1.902344 C 330.183594 2.027344 335.882813 2.28125 349.183594 2.28125 C 349.433594 4.6875 350.195313 7.222656 351.460938 9.882813 C 357.414063 23.304688 368.9375 48.761719 371.726563 54.207031 C 371.980469 54.335938 372.230469 54.335938 372.359375 54.082031 C 375.398438 48.507813 388.820313 20.011719 393.253906 9.753906 C 394.394531 6.96875 395.40625 4.183594 395.535156 2.28125 C 407.441406 2.28125 413.011719 1.902344 420.230469 1.902344 C 420.738281 2.15625 420.609375 4.6875 420.230469 5.195313 C 416.683594 5.574219 414.53125 6.082031 412.886719 6.589844 C 409.71875 7.601563 409.214844 9.503906 409.214844 12.667969 C 408.960938 21.152344 409.972656 59.019531 410.605469 67.761719 C 410.859375 71.558594 411.492188 74.21875 415.164063 74.976563 C 416.8125 75.484375 418.964844 75.863281 421.75 76.117188 C 422.132813 76.625 422.003906 78.777344 421.496094 79.410156 C 417.949219 79.410156 413.265625 79.03125 402.5 79.03125 C 395.660156 79.03125 389.835938 79.410156 385.65625 79.410156 C 385.277344 78.90625 385.277344 76.496094 385.65625 76.117188 C 388.695313 75.738281 390.34375 75.484375 392.113281 74.851563 C 394.394531 74.089844 394.902344 71.9375 394.902344 68.773438 C 395.15625 59.527344 394.902344 29.640625 394.773438 18.746094 C 394.648438 18.621094 394.394531 18.621094 394.269531 18.746094 C 389.203125 29.890625 371.726563 67.761719 368.050781 78.90625 C 367.292969 79.15625 364 79.15625 363.617188 78.90625 C 360.707031 68.519531 348.929688 41.921875 339.175781 17.988281 C 338.921875 17.988281 338.796875 18.113281 338.671875 18.238281 C 337.78125 27.359375 336.136719 57.628906 336.136719 66.746094 C 336.136719 71.6875 337.148438 73.710938 340.570313 74.722656 C 342.597656 75.359375 344.496094 75.613281 348.167969 76.117188 C 348.675781 76.496094 348.421875 79.03125 347.914063 79.410156 C 343.988281 79.410156 339.558594 79.03125 332.71875 79.03125 C 327.273438 79.03125 321.824219 79.410156 318.027344 79.410156 C 317.648438 78.90625 317.648438 76.625 318.027344 76.117188 C 320.179688 75.863281 321.953125 75.613281 323.726563 75.230469 C 327.398438 74.21875 328.664063 72.699219 329.550781 66.238281 C 330.816406 56.867188 333.476563 23.6875 334.109375 13.046875 C 334.109375 10.640625 333.476563 7.980469 330.816406 6.96875 C 328.539063 6.082031 325.753906 5.703125 322.207031 5.070313 C 321.953125 4.5625 322.207031 2.15625 322.585938 1.902344 "/>
<g clip-path="url(#clip1)" clip-rule="nonzero">
<path style=" stroke:none;fill-rule:nonzero;fill:rgb(12.89978%,66.299438%,88.198853%);fill-opacity:1;" d="M 440.867188 73.839844 C 444.160156 76.246094 448.464844 77.128906 452.773438 77.128906 C 459.359375 77.128906 464.550781 73.207031 464.550781 65.605469 C 464.550781 58.386719 460.878906 54.335938 449.859375 47.496094 C 438.335938 40.152344 430.734375 34.199219 430.734375 22.164063 C 430.734375 7.980469 442.386719 0.00390625 456.445313 0.00390625 C 465.4375 0.00390625 470.628906 1.648438 476.074219 2.027344 C 475.1875 6.714844 474.304688 12.539063 473.921875 19.886719 C 473.414063 20.394531 471.011719 20.394531 470.628906 20.011719 C 469.617188 12.285156 468.222656 8.613281 465.058594 6.460938 C 462.144531 4.4375 459.105469 3.800781 455.304688 3.800781 C 447.707031 3.800781 443.273438 9.246094 443.148438 15.578125 C 443.148438 21.53125 446.058594 25.332031 451.125 29.003906 C 456.316406 32.550781 460.371094 34.703125 465.4375 37.871094 C 473.542969 43.0625 478.355469 48.761719 478.355469 57.628906 C 478.355469 70.925781 467.84375 81.308594 449.480469 81.308594 C 441.5 81.308594 433.648438 79.03125 430.988281 77.386719 C 429.722656 75.484375 427.820313 62.441406 427.441406 58.261719 C 427.820313 57.628906 430.355469 56.996094 430.863281 57.375 C 433.394531 65.984375 436.308594 70.671875 440.867188 73.839844 "/>
</g>
<path style=" stroke:none;fill-rule:nonzero;fill:rgb(13.299561%,11.799622%,12.199402%);fill-opacity:1;" d="M 96.480469 159.652344 C 99.214844 163.835938 103.960938 165.761719 108.539063 165.761719 C 113.605469 165.761719 119.878906 162.546875 119.878906 156.277344 C 119.878906 143.171875 91.820313 151.292969 91.820313 129.101563 C 91.820313 122.429688 97.445313 113.183594 111.113281 113.183594 C 117.304688 113.183594 123.253906 114.46875 127.515625 119.695313 L 121.246094 125.402344 C 119.3125 122.429688 115.535156 120.417969 111.113281 120.417969 C 102.589844 120.417969 100.019531 125.5625 100.019531 129.101563 C 100.019531 143.492188 128.078125 134.890625 128.078125 155.390625 C 128.078125 166.40625 119.234375 173 108.300781 173 C 100.984375 173 93.988281 170.507813 90.128906 165.121094 "/>
<path style=" stroke:none;fill-rule:nonzero;fill:rgb(13.299561%,11.799622%,12.199402%);fill-opacity:1;" d="M 152.921875 147.273438 L 131.375 114.628906 L 141.265625 114.628906 L 156.78125 139.632813 L 172.78125 114.628906 L 182.1875 114.628906 L 160.640625 147.273438 L 160.640625 171.550781 L 152.921875 171.550781 "/>
<path style=" stroke:none;fill-rule:nonzero;fill:rgb(13.299561%,11.799622%,12.199402%);fill-opacity:1;" d="M 190.386719 159.652344 C 193.121094 163.835938 197.867188 165.761719 202.449219 165.761719 C 207.511719 165.761719 213.785156 162.546875 213.785156 156.277344 C 213.785156 143.171875 185.726563 151.292969 185.726563 129.101563 C 185.726563 122.429688 191.351563 113.183594 205.019531 113.183594 C 211.210938 113.183594 217.160156 114.46875 221.421875 119.695313 L 215.152344 125.402344 C 213.222656 122.429688 209.441406 120.417969 205.019531 120.417969 C 196.496094 120.417969 193.925781 125.5625 193.925781 129.101563 C 193.925781 143.492188 221.984375 134.890625 221.984375 155.390625 C 221.984375 166.40625 213.140625 173 202.207031 173 C 194.890625 173 187.894531 170.507813 184.035156 165.121094 "/>
<path style=" stroke:none;fill-rule:nonzero;fill:rgb(13.299561%,11.799622%,12.199402%);fill-opacity:1;" d="M 245.300781 121.867188 L 226.96875 121.867188 L 226.96875 114.632813 L 271.351563 114.632813 L 271.351563 121.867188 L 253.019531 121.867188 L 253.019531 171.554688 L 245.300781 171.554688 "/>
<path style=" stroke:none;fill-rule:nonzero;fill:rgb(13.299561%,11.799622%,12.199402%);fill-opacity:1;" d="M 279.550781 114.628906 L 316.292969 114.628906 L 316.292969 121.867188 L 287.269531 121.867188 L 287.269531 138.828125 L 314.28125 138.828125 L 314.28125 146.066406 L 287.269531 146.066406 L 287.269531 164.316406 L 317.738281 164.316406 L 317.738281 171.550781 L 279.550781 171.550781 "/>
<path style=" stroke:none;fill-rule:nonzero;fill:rgb(13.299561%,11.799622%,12.199402%);fill-opacity:1;" d="M 328.109375 114.628906 L 339.605469 114.628906 L 357.695313 157.722656 L 358.019531 157.722656 L 375.949219 114.628906 L 387.445313 114.628906 L 387.445313 171.550781 L 379.726563 171.550781 L 379.726563 124.761719 L 379.566406 124.761719 L 360.351563 171.550781 L 355.203125 171.550781 L 335.988281 124.761719 L 335.828125 124.761719 L 335.828125 171.550781 L 328.109375 171.550781 "/>
</g>
</svg>
