<?xml version="1.0" encoding="UTF-8" standalone="no"?>
<svg
   xmlns:dc="http://purl.org/dc/elements/1.1/"
   xmlns:cc="http://creativecommons.org/ns#"
   xmlns:rdf="http://www.w3.org/1999/02/22-rdf-syntax-ns#"
   xmlns:svg="http://www.w3.org/2000/svg"
   xmlns="http://www.w3.org/2000/svg"
   viewBox="0 0 1370.6667 866.66669"
   height="866.66669"
   width="1370.6667"
   xml:space="preserve"
   id="svg2"
   version="1.1"><metadata
     id="metadata8"><rdf:RDF><cc:Work
         rdf:about=""><dc:format>image/svg+xml</dc:format><dc:type
           rdf:resource="http://purl.org/dc/dcmitype/StillImage" /></cc:Work></rdf:RDF></metadata><defs
     id="defs6"><clipPath
       id="clipPath24"
       clipPathUnits="userSpaceOnUse"><path
         id="path22"
         d="M 0,650 H 1028 V 0 H 0 Z" /></clipPath></defs><g
     transform="matrix(1.3333333,0,0,-1.3333333,0,866.66667)"
     id="g10"><text
       id="text16"
       style="font-variant:normal;font-weight:normal;font-stretch:normal;font-size:82.29930115px;font-family:'Palatino Linotype';-inkscape-font-specification:PalatinoLinotype-Roman;writing-mode:lr-tb;fill:#ffffff;fill-opacity:1;fill-rule:nonzero;stroke:none"
       transform="matrix(1,0,0,-1,229.6802,341.7676)"><tspan
         id="tspan12"
         y="0"
         x="0 68.473015 118.75789 182.78674 229.03896 279.48843 347.96143 406.31165 470.34048 525.31641">HEALTHCARE</tspan><tspan
         id="tspan14"
         y="86.085068"
         x="-29.38085 48.474289 112.50314 180.89386 244.92271 307.71707 358.00195 435.85709 486.14197 554.53265">MANAGEMENT</tspan></text>
<g
       id="g18"><g
         clip-path="url(#clipPath24)"
         id="g20"><g
           transform="translate(141.6943,326.6665)"
           id="g26"><path
             id="path28"
             style="fill:#dddddd;fill-opacity:1;fill-rule:nonzero;stroke:none"
             d="m 0,0 c 0,0 -34.615,17 -32.793,34.333 1.566,14.902 57.388,42.001 191.292,53.335 20.218,1.711 48.8,3.601 81.68,5 81.353,3.462 194.393,3.456 306.675,-4.335 50.452,-3.5 97.167,-6.567 142.406,-12.332 65.875,-8.394 121.456,-19.334 121.456,-19.334 0,0 -106.274,23.333 -163.966,30.666 -28.966,3.683 -99.676,10.352 -173.984,14.334 -73.692,3.949 -150.92,5.23 -194.481,4.666 -56.232,-0.728 -106.683,-3.04 -127.984,-4.666 C 116.83,99.112 87.954,95.424 61.942,91 -13.677,78.139 -58.871,56.703 -59.209,40.333 -59.666,18.333 0,0 0,0" /></g><g
           transform="translate(893.1982,324)"
           id="g30"><path
             id="path32"
             style="fill:#f9f9f9;fill-opacity:1;fill-rule:nonzero;stroke:none"
             d="m 0,0 c 0,0 34.614,-17 32.793,-34.334 -1.567,-14.901 -57.388,-42.001 -191.293,-53.334 -20.217,-1.711 -48.8,-3.602 -81.679,-5 -81.353,-3.463 -194.394,-3.456 -306.675,4.334 -50.452,3.501 -97.167,6.567 -142.406,12.332 -65.875,8.395 -121.456,19.334 -121.456,19.334 0,0 106.274,-23.332 163.965,-30.666 28.966,-3.682 99.677,-10.352 173.985,-14.334 73.691,-3.949 150.92,-5.229 194.481,-4.666 56.231,0.729 106.683,3.041 127.983,4.666 33.472,2.556 62.348,6.243 88.36,10.667 75.619,12.862 120.813,34.298 121.151,50.667 C 59.664,-18.334 0,0 0,0" /></g><path
           id="path34"
           style="fill:#dddddd;fill-opacity:1;fill-rule:nonzero;stroke:none"
           d="m 614.446,423.668 h -194 V 507 h 194 z" /><path
           id="path36"
           style="fill:#f9f9f9;fill-opacity:1;fill-rule:nonzero;stroke:none"
           d="m 614.446,143.668 h -194 V 227 h 194 z" /></g></g></g></svg>