<svg xmlns="http://www.w3.org/2000/svg" width="500.648" height="471.216" viewBox="0 0 500.648 471.216">
  <g id="logo" transform="translate(-59.364 -39.282)">
    <g id="logo-2" data-name="logo" transform="translate(60.44 39.282)">
      <path id="Path_3" data-name="Path 3" d="M359.381,455.232,292.634,352.019,125,351.967,57.365,455.232Z" transform="translate(-13.542 -75.845)" fill="#003a66"/>
      <path id="Path_4" data-name="Path 4" d="M433.02,423.036h124.7L387.28,159.683l-63.535,94.875Z" transform="translate(-58.145 -43.649)" fill="#1569c7"/>
      <path id="Path_5" data-name="Path 5" d="M296.594,20.313l-63.681,94.3,61.848,95.575,63.8-94.547Z" transform="translate(-42.936 -20.313)" fill="#003a66"/>
      <path id="Path_6" data-name="Path 6" d="M180.658,159.729,4.729,423.044H129.74L242.12,254.621Z" transform="translate(-4.729 -43.657)" fill="#1569c7"/>
    </g>
    <g id="Group_1" data-name="Group 1" transform="translate(59.364 441.244)">
      <path id="Path_7" data-name="Path 7" d="M723.982,319.964v68.653h-7.711V319.964Z" transform="translate(-716.271 -319.964)" fill="#003a66"/>
      <path id="Path_8" data-name="Path 8" d="M815.763,388.617h-7.709V332.074l-30.562,33.248h-2.136l-40.587-43.789v-1.569h10.376l31.3,33.737,31.3-33.737h8.025Z" transform="translate(-698.712 -319.964)" fill="#003a66"/>
      <path id="Path_9" data-name="Path 9" d="M877.247,330.26l-31.018,58.358h-8.3v-1.569l35.569-67.084h7.641l35.645,67.084v1.569H908.4Z" transform="translate(-600.795 -319.964)" fill="#003a66"/>
      <path id="Path_10" data-name="Path 10" d="M955.439,329.819H906.127c-5.924,0-6.974,1.472-6.974,9.758V369c0,8.29,1.051,9.76,6.974,9.76h49.311v9.857H904.62c-9.393,0-13.179-5.347-13.179-18.486V338.448c0-13.14,3.785-18.484,13.179-18.484h50.818Z" transform="translate(-549.996 -319.964)" fill="#003a66"/>
      <path id="Path_11" data-name="Path 11" d="M1007.284,329.819H976.057v58.8h-7.711v-58.8H937.122v-9.855h70.162Z" transform="translate(-506.636 -319.964)" fill="#003a66"/>
      <path id="Path_12" data-name="Path 12" d="M842.974,330.082c5.889,0,7.337,1.895,7.337,10.181v.051c0,8.237-1.448,9.38-7.337,9.38H792.448v39.23h7.846V359.5h44.152c9.393,0,12.73-4.918,12.73-18.061v-2.3c0-13.142-3.337-18.863-12.73-18.863h-52v9.808Z" transform="translate(-643.963 -319.67)" fill="#003a66"/>
    </g>
  </g>
</svg>
