<?xml version="1.0" encoding="UTF-8" standalone="no"?>
<svg
   xmlns:dc="http://purl.org/dc/elements/1.1/"
   xmlns:cc="http://creativecommons.org/ns#"
   xmlns:rdf="http://www.w3.org/1999/02/22-rdf-syntax-ns#"
   xmlns:svg="http://www.w3.org/2000/svg"
   xmlns="http://www.w3.org/2000/svg"
   viewBox="0 0 119.96093 120.47067"
   height="120.47067"
   width="119.96093"
   xml:space="preserve"
   id="svg2"
   version="1.1"><metadata
     id="metadata8"><rdf:RDF><cc:Work
         rdf:about=""><dc:format>image/svg+xml</dc:format><dc:type
           rdf:resource="http://purl.org/dc/dcmitype/StillImage" /></cc:Work></rdf:RDF></metadata><defs
     id="defs6"><clipPath
       id="clipPath18"
       clipPathUnits="userSpaceOnUse"><path
         id="path16"
         d="M 0,90.353 H 89.971 V 0 H 0 Z" /></clipPath></defs><g
     transform="matrix(1.3333333,0,0,-1.3333333,0,120.47067)"
     id="g10"><g
       id="g12"><g
         clip-path="url(#clipPath18)"
         id="g14"><g
           transform="translate(63.7695,45.2358)"
           id="g20"><path
             id="path22"
             style="fill:#cbcbcb;fill-opacity:1;fill-rule:nonzero;stroke:none"
             d="m 0,0 c 0,10.067 -8.16,18.229 -18.228,18.229 -10.066,0 -18.227,-8.162 -18.227,-18.229 0,-10.066 8.161,-18.228 18.227,-18.228 C -8.16,-18.228 0,-10.066 0,0 m -31.898,0 c 0,7.551 6.121,13.671 13.67,13.671 7.551,0 13.671,-6.12 13.671,-13.671 0,-7.55 -6.12,-13.67 -13.671,-13.67 -7.549,0 -13.67,6.12 -13.67,13.67 m 13.67,-31.898 C 4.33,-31.898 18.513,-10.637 22.785,0 18.513,10.638 4.33,31.899 -18.228,31.899 -40.784,31.899 -54.968,10.638 -59.239,0 c 4.271,-10.637 18.455,-31.898 41.011,-31.898 m -24.208,15.237 c -5.668,5.454 -9.669,11.92 -11.848,16.661 2.179,4.742 6.18,11.193 11.848,16.662 6.351,6.109 14.454,10.68 24.208,10.68 9.755,0 17.858,-4.571 24.209,-10.68 C 11.649,11.208 15.65,4.742 17.829,0 15.65,-4.741 11.649,-11.192 5.981,-16.661 c -6.351,-6.109 -14.454,-10.68 -24.209,-10.68 -9.754,0 -17.857,4.571 -24.208,10.68" /></g></g></g></g></svg>