<svg xmlns="http://www.w3.org/2000/svg" width="82.025" height="63.798" viewBox="0 0 82.025 63.798">
  <g id="Group_38" data-name="Group 38" transform="translate(-372.53 -72.553)">
    <path id="Path_10" data-name="Path 10" d="M389.334,121.114a57.277,57.277,0,0,1-11.849-16.661,57.438,57.438,0,0,1,11.849-16.662c6.351-6.11,14.453-10.68,24.208-10.68s17.857,4.57,24.209,10.68A57.248,57.248,0,0,1,449.6,104.453a57.468,57.468,0,0,1-11.848,16.661c-6.352,6.108-14.454,10.679-24.209,10.679S395.685,127.222,389.334,121.114Zm24.208,15.237c22.558,0,36.74-21.262,41.013-31.9-4.273-10.638-18.455-31.9-41.013-31.9s-36.74,21.262-41.012,31.9C376.8,115.089,390.985,136.351,413.542,136.351Zm-13.671-31.9a13.671,13.671,0,1,1,13.671,13.669A13.671,13.671,0,0,1,399.871,104.453Zm31.9,0a18.228,18.228,0,1,0-18.227,18.227A18.227,18.227,0,0,0,431.769,104.453Z" fill="#cbcbcb"/>
    <rect id="Rectangle_563" data-name="Rectangle 563" width="60" height="5" transform="translate(393 128.084) rotate(-56.844)" fill="#cbcbcb"/>
  </g>
</svg>
